<?xml version="1.0" standalone="no"?>
<!DOCTYPE svg PUBLIC "-//W3C//DTD SVG 20010904//EN"
 "http://www.w3.org/TR/2001/REC-SVG-20010904/DTD/svg10.dtd">
<svg version="1.0" xmlns="http://www.w3.org/2000/svg"
 width="840.000000pt" height="750.000000pt" viewBox="0 0 840.000000 750.000000"
 preserveAspectRatio="xMidYMid meet">

<g transform="translate(0.000000,750.000000) scale(0.100000,-0.100000)"
fill="#000000" stroke="none">
<path d="M6969 7085 c-238 -39 -492 -136 -704 -270 -299 -189 -361 -221 -463
-240 -165 -31 -860 -135 -1506 -225 l-290 -40 -470 -10 c-424 -9 -961 -21
-1551 -35 -115 -3 -421 -10 -680 -16 -258 -6 -477 -15 -486 -20 -10 -5 -68 -9
-129 -9 l-110 0 -185 -106 c-102 -58 -185 -109 -185 -113 0 -4 54 -48 120 -97
65 -49 119 -94 120 -99 0 -6 -31 -105 -70 -220 -38 -115 -69 -210 -67 -211 1
-1 92 -43 202 -94 110 -50 203 -95 207 -99 6 -5 -26 -281 -47 -402 -4 -24 10
-38 148 -144 84 -65 155 -121 159 -124 4 -4 -3 -89 -17 -190 -14 -101 -25
-193 -25 -205 0 -17 42 -56 178 -161 l177 -139 -7 -70 c-4 -39 -7 -182 -7
-318 l-1 -246 278 -155 c152 -86 285 -161 294 -169 15 -11 18 -49 25 -317 l8
-304 330 -148 c182 -82 335 -150 340 -152 6 -2 3 -12 -7 -23 -14 -17 -17 -64
-23 -364 l-7 -345 228 -62 228 -61 71 65 70 66 3 -54 c2 -30 -1 -162 -7 -293
-6 -132 -10 -241 -8 -242 1 -1 142 -8 312 -14 171 -7 312 -14 314 -16 2 -1
-29 -53 -68 -115 -54 -86 -68 -115 -60 -125 14 -17 -13 -36 328 233 l265 208
285 396 c157 217 473 654 701 969 l415 575 42 123 c42 123 43 124 190 315 80
106 159 208 175 227 15 19 119 154 230 300 111 146 329 431 485 634 l282 370
163 88 c90 48 167 88 171 88 4 0 13 5 20 10 7 6 60 39 119 74 156 92 259 169
372 276 167 160 266 312 323 497 25 81 27 102 27 273 1 180 0 187 -28 260
-125 330 -387 645 -629 756 -141 64 -384 90 -568 59z m301 -24 c30 -4 48 -10
40 -14 -41 -17 -91 -23 -145 -19 -109 8 -340 -45 -460 -105 -27 -14 -114 -66
-193 -115 l-142 -89 -34 26 c-18 14 -38 25 -45 25 -68 0 237 158 419 217 208
68 407 94 560 74z m231 -57 c202 -82 432 -322 564 -589 94 -191 100 -215 99
-405 -2 -195 -18 -273 -89 -415 -83 -167 -221 -323 -411 -464 -91 -68 -284
-191 -299 -191 -3 0 -5 12 -5 26 0 105 -97 326 -291 664 -64 112 -156 265
-528 882 -15 25 -15 28 0 40 9 7 65 54 124 103 256 215 422 307 645 355 112
24 116 24 191 -6z m-472 -57 c-120 -59 -218 -128 -395 -274 -68 -57 -127 -103
-131 -103 -7 1 -39 40 -91 110 -11 16 -3 24 80 77 114 74 217 132 283 160 80
34 250 75 345 82 8 0 -32 -23 -91 -52z m-1025 -398 c5 -4 -11 -13 -35 -19 -24
-6 -52 -13 -61 -16 -25 -7 -23 21 2 46 16 16 24 18 52 8 18 -6 37 -14 42 -19z
m-144 -8 c0 -14 -4 -15 -388 -77 -250 -40 -357 -53 -364 -46 -14 14 -28 11
372 72 184 28 337 53 339 56 8 8 41 4 41 -5z m227 -41 c18 -14 21 -21 12 -24
-8 -3 -209 -46 -447 -96 -414 -88 -434 -91 -447 -74 -18 25 -13 30 37 38 116
18 748 153 816 175 2 1 15 -8 29 -19z m103 -97 l42 -48 -39 -17 c-21 -9 -88
-32 -150 -51 l-112 -35 -11 57 c-6 31 -14 64 -16 73 -4 13 9 19 68 32 40 9 91
20 113 25 22 5 45 9 52 10 6 1 30 -20 53 -46z m-663 31 c-3 -3 -12 -4 -19 -1
-8 3 -5 6 6 6 11 1 17 -2 13 -5z m-200 -41 c-149 -30 -192 -35 -176 -18 7 7
280 53 314 53 17 0 -46 -16 -138 -35z m-181 -70 c511 -574 949 -1310 1250
-2102 54 -143 61 -169 50 -185 -7 -11 -17 -21 -23 -23 -5 -2 -25 36 -43 84
-55 145 -175 423 -259 598 -294 611 -663 1170 -1079 1632 -77 86 -77 89 -10
92 22 1 43 -16 114 -96z m-206 67 c0 -12 -1 -13 -294 -60 -222 -36 -252 -39
-265 -25 -8 8 -13 16 -10 19 7 6 480 74 527 75 23 0 42 -3 42 -9z m940 -57 c6
-32 13 -65 16 -74 4 -15 -97 -49 -447 -148 l-67 -19 -65 81 c-36 45 -64 83
-61 86 5 5 569 128 596 130 13 1 19 -13 28 -56z m-897 2 c-2 -10 -453 -103
-504 -104 -15 -1 -32 6 -39 14 -7 8 -11 15 -9 16 80 16 520 87 534 86 11 -1
19 -6 18 -12z m-514 -162 c722 -729 1219 -1587 1491 -2579 l40 -146 -32 -39
c-35 -43 -43 -43 -53 3 -13 59 -105 341 -161 497 -312 858 -789 1632 -1380
2241 -79 81 -144 150 -144 153 0 5 33 12 74 16 12 0 71 -52 165 -146z m1794
118 l17 -28 -328 -98 c-180 -53 -367 -108 -415 -123 l-88 -26 -21 22 c-12 12
-20 23 -17 25 2 2 137 43 299 90 162 48 347 104 410 126 63 22 117 40 120 40
3 1 13 -12 23 -28z m-2059 -10 c17 -18 16 -19 -21 -25 -21 -3 -60 0 -88 8 -44
12 -47 14 -25 19 82 20 115 20 134 -2z m841 -3 l15 -23 -142 -31 c-79 -16
-196 -41 -260 -54 l-118 -24 -22 21 c-12 13 -20 25 -17 27 4 5 483 102 516
105 6 0 19 -9 28 -21z m-1245 -34 c-41 -12 -367 -77 -725 -143 -525 -97 -716
-128 -995 -161 -190 -23 -599 -79 -909 -126 -310 -47 -566 -83 -568 -80 -3 3
53 110 124 238 l128 233 110 3 c439 13 2586 59 2730 60 l180 0 -75 -24z m369
-34 c57 -16 105 -31 107 -33 20 -20 -60 -44 -446 -135 -269 -63 -666 -168
-1080 -285 l-655 -185 -523 -87 c-288 -48 -526 -85 -529 -82 -3 3 55 80 128
171 132 162 135 165 184 175 195 41 2638 489 2670 490 22 0 87 -13 144 -29z
m2195 -71 c31 -56 56 -103 56 -105 0 -6 -111 -60 -234 -113 -92 -40 -121 -49
-127 -39 -13 21 -89 227 -89 242 0 8 63 32 168 63 92 28 168 51 169 52 1 0 27
-45 57 -100z m-1200 -3 c37 -44 63 -83 59 -86 -9 -8 -442 -130 -460 -130 -12
0 -187 189 -181 195 9 10 503 112 510 106 4 -3 36 -42 72 -85z m-4372 22 c-10
-18 -52 -92 -91 -165 -40 -72 -78 -136 -84 -141 -7 -5 -40 -12 -75 -15 l-63
-5 -87 66 c-48 36 -97 73 -110 83 -22 17 -22 18 145 113 l168 96 108 0 109 0
-20 -32z m3550 -15 c27 -24 22 -40 -14 -46 -18 -2 -34 -4 -36 -2 -1 1 1 16 4
33 7 36 19 40 46 15z m1617 -94 c13 -39 19 -75 14 -79 -10 -11 -364 -150 -378
-149 -11 0 -129 159 -122 165 6 6 430 132 448 133 10 1 22 -21 38 -70z m-1704
49 c-2 -7 -20 -71 -40 -143 -20 -71 -38 -138 -41 -147 -4 -14 -16 -18 -52 -18
-30 0 -536 -128 -1371 -347 -1305 -343 -1325 -348 -1335 -375 -8 -21 -19 -30
-44 -34 -29 -6 -38 -2 -61 22 -187 198 -273 296 -265 303 5 4 245 47 534 95
l525 86 660 187 c378 106 835 228 1070 284 226 54 413 98 417 98 4 1 5 -5 3
-11z m234 -119 c50 -55 91 -104 91 -108 0 -13 -205 -60 -289 -67 l-83 -6 7 31
c4 18 19 76 34 129 l28 97 49 12 c27 6 54 12 61 12 6 1 53 -44 102 -100z m786
21 c10 -11 15 -23 11 -28 -4 -4 -107 -37 -229 -73 l-222 -66 -28 26 c-19 17
-24 27 -15 30 30 11 444 129 454 130 6 0 19 -8 29 -19z m1180 -30 c15 -29 15
-31 -7 -39 -13 -5 -179 -74 -370 -155 -191 -80 -351 -146 -355 -146 -8 0 -37
40 -31 44 2 1 143 62 313 135 171 73 335 145 365 161 30 15 58 28 62 29 4 1
14 -13 23 -29z m-1074 -108 c31 -42 59 -82 62 -88 6 -11 -23 -23 -349 -143
l-81 -29 -72 91 c-40 50 -75 96 -78 102 -2 8 60 31 174 64 98 29 196 58 218
66 22 7 47 14 55 14 8 0 40 -34 71 -77z m628 51 c7 -14 8 -29 4 -33 -4 -4 -89
-37 -188 -74 l-179 -67 -18 23 c-9 13 -14 24 -10 26 40 17 368 150 373 151 3
0 11 -11 18 -26z m574 -170 c78 -134 95 -169 85 -180 -13 -16 -284 -212 -303
-219 -14 -6 -39 34 -165 259 -45 81 -80 150 -77 153 6 6 348 153 357 153 3 0
49 -74 103 -166z m-5033 77 c-140 -27 -256 -49 -257 -50 -1 0 -50 -58 -108
-130 -58 -71 -110 -132 -114 -135 -5 -2 -100 40 -212 95 -112 54 -202 100
-199 101 23 7 1083 167 1110 167 19 0 -80 -22 -220 -48z m3088 -11 c13 -16 22
-29 19 -29 -2 0 -48 -13 -102 -30 -55 -16 -101 -27 -103 -25 -3 3 1 21 9 41
13 34 20 39 74 55 79 22 76 22 103 -12z m-4063 -45 c-15 -25 -25 -47 -23 -49
5 -5 256 -129 328 -163 l55 -25 -65 -13 c-150 -30 -503 -94 -506 -92 -1 2 26
86 60 188 69 202 64 195 149 199 l29 1 -27 -46z m3825 7 c-75 -43 -1007 -395
-1527 -577 -355 -124 -828 -293 -1051 -375 -223 -82 -411 -149 -417 -149 -8 0
-3 59 15 195 15 107 29 197 31 199 2 2 589 158 1304 346 1257 330 1305 342
1445 355 183 16 220 17 200 6z m365 -122 c43 -55 73 -104 69 -108 -11 -10
-487 -181 -492 -177 -3 3 87 307 93 314 5 6 219 70 236 71 10 1 49 -41 94
-100z m995 91 c-8 -5 -19 -10 -25 -10 -5 0 -3 5 5 10 8 5 20 10 25 10 6 0 3
-5 -5 -10z m373 -84 c26 -47 47 -89 47 -94 0 -5 -53 -37 -117 -72 -65 -35
-133 -71 -152 -82 -19 -10 -38 -15 -42 -11 -15 15 -128 198 -124 201 6 6 320
140 331 141 5 1 31 -37 57 -83z m-1723 67 c0 -5 -27 -99 -61 -210 l-62 -203
-53 0 c-45 0 -137 -34 -668 -245 -529 -211 -1781 -675 -1820 -675 -14 0 -329
240 -323 246 9 10 871 321 1467 530 413 144 857 308 1095 403 220 88 406 160
413 160 6 1 12 -2 12 -6z m1080 -14 c7 -11 10 -22 8 -23 -9 -7 -416 -156 -426
-156 -14 0 -38 43 -26 48 110 44 404 150 416 151 10 1 22 -8 28 -20z m229 17
c-15 -13 -49 -25 -49 -17 0 5 8 12 18 14 24 6 36 8 31 3z m-189 -75 c0 -5 -12
-14 -27 -19 -16 -6 -110 -44 -210 -85 -142 -59 -184 -73 -192 -63 -9 10 37 31
202 94 229 87 227 86 227 73z m49 -76 c0 -5 -93 -49 -207 -97 l-207 -86 -17
21 c-10 12 -18 24 -18 27 0 3 96 44 212 91 192 78 214 85 225 70 7 -9 12 -20
12 -26z m1507 -76 c46 -71 154 -287 154 -309 0 -6 -21 -32 -48 -58 -33 -34
-61 -52 -96 -62 -48 -13 -49 -13 -70 13 -12 15 -61 106 -110 203 l-88 176 30
31 c25 24 141 76 175 77 4 0 28 -32 53 -71z m-1411 -65 c37 -59 63 -110 58
-114 -10 -10 -377 -200 -385 -200 -9 0 -161 240 -156 245 5 6 400 173 410 174
3 1 36 -47 73 -105z m1055 56 c0 -9 -645 -450 -659 -450 -9 0 -26 39 -19 44
402 279 516 359 573 403 l70 53 18 -21 c9 -12 17 -25 17 -29z m-512 15 c7 -14
12 -28 12 -30 0 -2 -70 -40 -156 -85 -146 -76 -157 -80 -170 -63 -7 10 -14 21
-14 25 0 3 64 41 143 83 78 43 146 81 152 86 14 14 21 11 33 -16z m-1333 -15
c10 -11 16 -23 13 -26 -4 -3 -107 -44 -230 -90 -211 -81 -226 -85 -282 -80
-58 6 -81 15 -61 23 47 19 523 191 531 192 6 1 19 -8 29 -19z m-3870 -2 c14
-6 25 -15 25 -19 0 -4 -16 -26 -36 -50 l-35 -42 41 -42 c23 -24 38 -45 33 -48
-4 -3 -72 -22 -150 -42 l-143 -38 -177 82 c-98 46 -182 86 -186 91 -8 7 100
29 478 99 125 24 119 23 150 9z m5775 -103 l34 -66 -139 -139 -139 -139 -41
57 c-22 31 -51 74 -64 94 l-22 37 43 31 c208 144 274 189 283 189 6 1 26 -28
45 -64z m-501 -6 c40 -73 50 -59 -130 -183 -95 -64 -129 -83 -136 -73 -27 34
-87 160 -78 164 6 2 73 37 150 77 77 41 145 74 150 75 6 0 25 -26 44 -60z
m-1354 40 c4 -6 5 -13 1 -16 -16 -16 -324 -133 -350 -133 -80 1 -53 19 131 88
200 76 208 78 218 61z m52 -75 c13 -20 9 -23 -119 -77 -73 -31 -141 -59 -150
-62 -15 -6 -17 -3 -12 24 5 23 3 31 -7 31 -8 1 45 25 116 55 72 30 136 54 144
52 7 -1 20 -11 28 -23z m117 -179 c43 -69 77 -127 75 -129 -2 -2 -127 -65
-278 -141 -267 -133 -274 -136 -268 -108 3 15 18 105 33 200 l28 172 156 65
c85 36 160 65 165 65 6 1 46 -55 89 -124z m673 103 c10 -22 1 -28 -186 -124
-108 -56 -199 -100 -203 -97 -5 2 -13 13 -18 23 -10 18 7 29 187 119 109 55
201 100 204 100 3 1 10 -9 16 -21z m-1348 -13 c112 -13 205 -26 207 -28 2 -2
-116 -67 -263 -143 -148 -77 -491 -272 -763 -434 l-495 -295 -645 -282 c-355
-156 -654 -286 -664 -289 -19 -6 -19 1 -13 267 3 151 9 275 14 277 4 1 541
216 1193 476 652 261 1194 475 1205 475 11 0 112 -10 224 -24z m2430 -2 c7
-14 8 -29 4 -34 -4 -4 -143 -134 -308 -289 -271 -254 -301 -279 -309 -260 -8
18 26 55 290 315 164 162 302 294 305 294 3 1 11 -11 18 -26z m-5660 -124 c66
-72 121 -134 121 -138 0 -4 -37 -18 -82 -31 -46 -13 -183 -56 -306 -96 l-223
-72 5 27 c3 14 15 101 27 192 l22 167 151 40 c83 22 154 40 157 41 4 0 61 -58
128 -130z m4665 -12 c27 -48 47 -89 45 -91 -25 -21 -362 -246 -368 -246 -5 0
-32 43 -60 94 -27 52 -56 105 -63 117 -8 13 -9 23 -3 26 6 2 91 46 190 97 99
52 187 93 195 92 8 -1 37 -41 64 -89z m534 68 c-3 -13 -267 -245 -279 -245 -9
0 -33 60 -26 66 23 23 294 201 300 197 4 -3 7 -11 5 -18z m-1775 -260 c-47
-282 -53 -302 -97 -286 -17 6 -128 -54 -576 -316 -562 -329 -1582 -898 -1598
-891 -30 11 -542 303 -542 309 0 3 296 136 658 294 l657 289 500 296 c275 164
621 361 770 438 148 78 270 140 271 139 1 -1 -18 -123 -43 -272z m2303 189
c19 -41 34 -81 34 -89 0 -7 -37 -63 -82 -124 -94 -128 -83 -127 -191 -22 l-69
66 129 122 c70 67 132 122 136 123 5 0 24 -34 43 -76z m-479 9 c13 -20 7 -27
-132 -140 -80 -65 -150 -119 -155 -121 -5 -2 -12 8 -16 22 -5 20 -1 31 17 45
13 10 76 64 139 119 63 55 119 99 124 98 5 -1 16 -12 23 -23z m57 -79 l19 -26
-94 -95 c-52 -52 -120 -117 -151 -144 l-57 -50 -25 48 -24 48 151 123 c84 67
154 122 157 121 3 0 13 -11 24 -25z m-1287 -63 c11 -18 3 -24 -100 -79 -205
-109 -498 -254 -503 -249 -3 3 -1 19 3 37 8 30 25 40 283 169 151 76 282 138
290 139 8 1 21 -7 27 -17z m733 -22 c0 -4 -84 -65 -186 -135 -144 -98 -188
-123 -195 -113 -5 8 -8 20 -6 28 1 7 83 68 182 136 158 108 182 121 193 107 6
-9 12 -19 12 -23z m1044 -26 c1 -22 -53 -95 -274 -370 -151 -188 -278 -342
-281 -342 -4 -1 -10 6 -13 15 -4 10 64 105 204 286 116 148 241 312 278 363
67 93 84 103 86 48z m-5597 5 c-3 -18 -13 -93 -22 -166 -17 -125 -17 -133 -1
-145 15 -11 -6 -21 -142 -70 -88 -31 -165 -57 -171 -57 -18 0 -341 254 -333
262 4 4 124 43 267 88 143 45 285 90 315 100 83 28 94 26 87 -12z m3939 -173
c27 -51 47 -95 44 -98 -3 -2 -68 -47 -145 -99 l-141 -96 -228 68 c-125 38
-229 70 -231 72 -2 2 134 74 303 160 l307 157 21 -35 c12 -20 44 -78 70 -129z
m653 117 l19 -38 -165 -135 c-91 -73 -174 -139 -183 -146 -15 -11 -20 -5 -42
46 l-26 59 186 126 c102 69 187 126 189 126 1 0 11 -17 22 -38z m750 -94 c26
-20 32 -30 24 -40 -5 -7 -88 -113 -183 -236 l-173 -223 -64 153 c-35 84 -66
158 -69 164 -3 6 68 79 157 163 l162 152 56 -53 c31 -30 71 -65 90 -80z m281
17 c0 -58 -14 -75 -62 -75 -50 0 -50 14 -1 77 27 33 51 59 56 56 4 -2 7 -29 7
-58z m-980 -15 c9 -17 -9 -35 -172 -165 -167 -134 -183 -145 -195 -129 -11 15
-11 21 -1 31 26 26 343 282 350 282 4 1 12 -8 18 -19z m52 -113 l26 -53 -174
-165 c-96 -90 -177 -164 -180 -164 -6 0 -64 131 -64 145 0 9 348 290 359 290
4 0 19 -24 33 -53z m856 18 c7 -5 -461 -604 -469 -599 -5 3 -9 11 -9 19 0 8
76 116 168 242 93 125 188 256 212 290 39 55 47 62 69 56 14 -3 27 -7 29 -8z
m-1531 -98 c-5 -16 -247 -179 -247 -166 0 6 -7 17 -15 23 -13 9 7 26 112 98
114 77 129 85 141 70 7 -9 11 -20 9 -25z m-594 -78 c158 -46 287 -87 287 -91
0 -12 -558 -356 -865 -533 -170 -97 -642 -380 -1048 -627 -406 -248 -742 -446
-747 -442 -4 5 -9 136 -11 292 l-4 283 1035 604 c569 333 1042 603 1051 601 9
-2 145 -41 302 -87z m-3271 -30 c71 -56 126 -105 121 -109 -9 -10 -694 -262
-699 -258 -1 2 8 82 22 178 13 96 24 176 24 178 0 1 8 -3 18 -9 13 -8 55 3
197 55 99 36 182 65 184 66 2 0 62 -46 133 -101z m4593 82 c6 -19 -9 -34 -252
-265 -85 -80 -112 -95 -113 -63 -1 12 339 346 352 347 4 0 9 -8 13 -19z m-675
-71 c16 -33 30 -61 30 -64 0 -6 -391 -318 -394 -314 -4 4 50 248 55 252 14 11
273 186 276 186 1 0 16 -27 33 -60z m776 -162 c35 -82 64 -155 64 -161 0 -12
-336 -440 -348 -444 -4 -1 -40 99 -81 223 l-74 225 119 112 c65 61 146 137
179 169 49 46 62 54 68 41 5 -8 38 -82 73 -165z m-716 26 c0 -13 -423 -354
-440 -354 -8 0 -10 8 -5 27 4 16 7 28 8 29 1 0 96 76 211 168 203 161 225 175
226 130z m-407 -1 c-4 -16 -23 -100 -43 -188 l-36 -160 -121 -3 -121 -3 -812
-747 c-447 -411 -825 -755 -840 -765 l-27 -17 -327 146 c-180 81 -325 151
-324 155 5 14 1452 892 1798 1091 179 103 442 261 585 352 143 90 263 165 268
165 4 1 4 -11 0 -26z m-3352 -16 c-6 -8 -12 -78 -13 -182 l-3 -168 -218 -78
-218 -79 -160 124 c-87 69 -155 127 -150 130 25 16 694 255 722 259 19 2 38 5
43 5 5 1 4 -4 -3 -11z m3818 -109 l34 -81 -76 -74 -77 -73 -150 0 c-82 0 -150
3 -149 8 0 9 361 300 374 301 6 0 25 -36 44 -81z m920 -3 c-34 -47 -72 -86
-54 -55 13 22 77 100 82 100 2 0 -10 -20 -28 -45z m-169 -128 c0 -7 -81 -113
-180 -236 -129 -160 -182 -218 -186 -207 -4 11 18 46 63 104 38 48 118 149
178 224 99 125 125 149 125 115z m-731 -65 c-36 -33 -46 -38 -61 -28 -16 10
-13 15 34 58 47 41 54 44 61 28 7 -13 -1 -26 -34 -58z m655 -135 c-209 -283
-256 -340 -266 -323 -5 9 -5 22 -1 30 25 42 358 445 361 436 2 -5 -40 -70 -94
-143z m-573 78 c38 -97 139 -397 139 -411 0 -15 -99 -144 -110 -144 -9 0 -264
-38 -304 -45 l-30 -5 23 24 c18 19 34 76 77 275 l55 250 57 55 c31 31 61 54
66 53 4 -2 17 -25 27 -52z m699 -9 c0 -13 -322 -441 -357 -476 -14 -13 -15
-12 -11 10 5 30 348 491 360 484 4 -3 8 -11 8 -18z m-895 -15 c-11 -11 -99
-85 -195 -166 -97 -81 -363 -329 -595 -555 -310 -301 -572 -542 -999 -919
-318 -282 -580 -510 -581 -509 -1 2 0 142 4 311 l6 308 840 774 840 774 350 0
c344 1 349 1 330 -18z m-3735 -124 l0 -112 140 -79 c77 -43 142 -81 145 -86 2
-4 -161 -84 -363 -178 l-367 -171 -3 37 c-1 20 1 149 5 286 l8 248 205 83
c113 46 211 84 218 84 9 1 12 -28 12 -112z m3690 -168 c-50 -231 -51 -232 -88
-265 -20 -18 -45 -33 -54 -34 -16 0 -1586 -1482 -1741 -1641 l-57 -60 -178 47
c-97 26 -180 50 -185 54 -4 4 261 244 590 535 458 404 688 616 982 904 351
344 771 721 779 700 2 -4 -20 -112 -48 -240z m-3193 -223 c86 -49 105 -56 122
-46 21 10 21 9 21 -93 l0 -103 -247 -144 c-137 -79 -257 -149 -268 -156 -18
-11 -49 3 -272 129 -139 78 -254 146 -255 151 -2 5 164 87 367 182 l370 172
30 -18 c17 -9 76 -43 132 -74z m3570 17 c-39 -40 -51 -23 -15 22 27 32 34 36
36 21 2 -10 -7 -30 -21 -43z m53 -52 c0 -12 -97 -151 -105 -151 -2 0 6 28 17
63 25 75 66 136 79 116 5 -8 9 -20 9 -28z m-127 -83 c-15 -40 -50 -133 -77
-206 l-51 -133 -809 -999 c-445 -550 -815 -1005 -821 -1010 -7 -6 -85 10 -225
46 -118 30 -216 57 -219 59 -2 3 43 53 100 113 57 59 241 251 409 426 168 175
508 512 755 749 435 418 458 441 700 729 138 164 253 298 257 298 4 0 -4 -33
-19 -72z m-48 52 c-3 -5 -107 -130 -231 -277 -212 -252 -252 -294 -684 -708
-255 -245 -632 -621 -850 -847 -215 -225 -394 -408 -397 -408 -7 0 5 408 13
488 l6 53 870 827 870 827 171 26 c190 30 241 34 232 19z m195 -38 c0 -10 -41
-72 -91 -138 -66 -86 -90 -111 -85 -89 6 24 162 245 173 245 2 0 3 -8 3 -18z
m-3496 -204 c3 -13 6 -102 6 -199 l0 -176 110 -48 c61 -27 110 -51 110 -54 0
-3 -152 -87 -337 -186 -185 -99 -345 -188 -355 -197 -17 -17 -18 -17 -22 5 -3
12 -7 150 -10 307 l-5 285 242 142 c133 78 245 142 248 142 4 1 9 -9 13 -21z
m3188 -306 c-26 -78 -62 -131 -726 -1050 l-699 -967 -224 -175 c-258 -202
-271 -212 -259 -190 69 120 299 478 313 486 10 6 378 457 818 1001 440 545
801 987 803 984 1 -4 -10 -44 -26 -89z m-2700 -284 l208 -93 0 -80 -1 -80
-245 -165 c-135 -91 -250 -167 -255 -169 -18 -6 -650 282 -640 292 12 12 704
386 716 387 6 0 103 -42 217 -92z m204 -550 l-1 -252 38 -9 c20 -5 37 -12 37
-15 -1 -4 -76 -61 -167 -127 -92 -66 -230 -169 -306 -228 -77 -59 -140 -107
-141 -105 -1 2 1 145 4 318 l5 314 260 178 c143 97 263 177 266 178 4 0 6
-113 5 -252z m270 -325 c74 -20 133 -40 132 -44 -4 -11 -527 -509 -534 -509
-11 0 -379 102 -383 106 -6 6 29 34 254 203 266 200 378 280 389 281 4 0 69
-17 142 -37z m144 -353 c-10 -208 -10 -254 1 -261 10 -6 -40 -60 -176 -192
-186 -181 -190 -184 -193 -153 -2 17 1 142 7 277 l11 247 103 99 c187 182 252
242 255 238 2 -1 -2 -116 -8 -255z m250 -325 c96 -25 179 -47 183 -48 7 -2
-178 -274 -207 -305 -10 -10 -64 -11 -287 -1 -151 6 -276 13 -278 15 -7 6 384
383 399 384 8 0 94 -20 190 -45z"/>
</g>
</svg>
